<?xml version="1.0" standalone="no"?>
<!DOCTYPE svg PUBLIC "-//W3C//DTD SVG 20010904//EN"
 "http://www.w3.org/TR/2001/REC-SVG-20010904/DTD/svg10.dtd">
<svg version="1.0" xmlns="http://www.w3.org/2000/svg"
 width="512.000000pt" height="512.000000pt" viewBox="0 0 512.000000 512.000000"
 preserveAspectRatio="xMidYMid meet">

<g transform="translate(0.000000,512.000000) scale(0.100000,-0.100000)"
fill="#000000" stroke="none">
<path d="M1430 4590 c-423 -262 -730 -459 -738 -472 -13 -23 -652 -2406 -678
-2528 -28 -132 -10 -322 41 -426 51 -104 309 -316 594 -488 297 -180 755 -363
1089 -436 400 -87 1012 -4 1572 213 l65 25 175 -87 c382 -190 794 -300 1135
-304 l120 -2 57 114 c57 116 129 316 168 470 61 243 97 587 86 841 -18 469
-133 780 -369 1007 -101 97 -152 133 -270 188 -404 192 -868 106 -1192 -219
-74 -75 -145 -165 -190 -243 l-18 -32 74 -79 c83 -88 169 -211 223 -319 40
-80 43 -95 21 -113 -26 -22 -53 0 -95 78 -136 252 -328 445 -546 549 -129 61
-224 84 -377 90 -149 7 -244 -6 -367 -49 -260 -91 -460 -268 -644 -570 -25
-42 -76 -32 -76 14 0 42 159 265 259 363 l51 49 0 635 0 636 -101 167 c-110
185 -114 201 -51 217 176 46 366 91 387 91 21 0 62 -33 178 -145 83 -80 154
-145 157 -145 6 1 524 676 528 690 4 10 -525 670 -536 670 -4 -1 -333 -203
-732 -450z m2780 -3178 c172 -87 358 -165 535 -224 101 -34 120 -46 111 -76
-12 -37 -41 -35 -182 12 -162 54 -301 114 -484 207 -184 93 -200 104 -200 132
0 55 17 51 220 -51z m-3128 -248 c329 -183 718 -322 1073 -384 151 -27 153
-27 160 -51 10 -30 -12 -49 -59 -49 -111 0 -450 87 -696 177 -200 73 -508 219
-602 285 -30 21 -36 46 -16 66 19 19 32 15 140 -44z"/>
<path d="M3975 4075 l-25 -24 0 -266 0 -266 25 -24 c15 -16 36 -25 55 -25 19
0 40 9 55 25 l25 24 0 264 c0 252 -1 266 -21 291 -28 35 -80 36 -114 1z"/>
<path d="M3170 3963 c-35 -13 -60 -47 -60 -82 0 -33 15 -50 188 -223 167 -167
191 -188 220 -188 44 0 82 38 82 82 0 30 -20 53 -187 220 -104 102 -197 188
-208 191 -11 3 -27 3 -35 0z"/>
<path d="M4834 3954 c-17 -8 -109 -93 -203 -188 -159 -161 -171 -176 -171
-210 0 -48 36 -86 82 -86 29 0 53 21 220 188 173 173 188 190 188 223 0 62
-61 100 -116 73z"/>
</g>
</svg>
