<?xml version="1.0" encoding="UTF-8"?>
<svg version="1.1" xmlns="http://www.w3.org/2000/svg" width="1024" height="1024">
<path d="M0 0 C4.5844916 3.37654464 7.9831002 7.25053408 9.5 12.8125 C10.36731456 21.44988 7.38978288 28.34423613 4.1875 36.1875 C3.63676182 37.56842758 3.08730268 38.94986589 2.5390625 40.33178711 C1.14356191 43.83715713 -0.27054975 47.33462418 -1.69293213 50.8291626 C-2.90802638 53.8152087 -4.11512013 56.80449077 -5.32421875 59.79296875 C-7.11715779 64.21081746 -8.92092999 68.6240833 -10.73046875 73.03515625 C-13.62978486 80.11220277 -16.47684411 87.20975127 -19.3125 94.3125 C-19.56220551 94.9379068 -19.81191101 95.5633136 -20.06918335 96.20767212 C-21.09802408 98.78481103 -22.1266986 101.3620161 -23.15498352 103.93937683 C-24.95317046 108.44569649 -26.75649544 112.94993336 -28.5625 117.453125 C-46.78970603 162.91560971 -64.80054277 208.46709508 -82.7421875 254.04296875 C-82.99062912 254.67404541 -83.23907074 255.30512207 -83.49504089 255.95532227 C-85.06401855 259.94309547 -86.62466659 263.93407099 -88.18359375 267.92578125 C-89.66344014 271.70842795 -91.17487197 275.475132 -92.72265625 279.23046875 C-93.0582959 280.05667725 -93.39393555 280.88288574 -93.73974609 281.73413086 C-94.33931247 283.20709957 -94.94905841 284.67600092 -95.57275391 286.13891602 C-97.87065819 291.83207063 -98.46528564 296.91664308 -96.5 302.8125 C-95.42022998 302.81884791 -95.42022998 302.81884791 -94.31864643 302.82532406 C-76.75574767 302.92889265 -59.19288782 303.03756801 -41.63005543 303.15183926 C-33.13660294 303.20697973 -24.64314626 303.26042884 -16.1496582 303.30981445 C-8.74169119 303.35289265 -1.3337527 303.39922765 6.07416993 303.44937855 C9.99199988 303.47579065 13.90982487 303.50063635 17.82768822 303.52157402 C21.52535786 303.5413866 25.22297416 303.56559744 28.92059517 303.59299088 C30.90405572 303.60659503 32.88754553 303.61570729 34.87103271 303.62461853 C42.78662878 303.68851362 50.61639683 304.09788189 58.5 304.8125 C58.5 305.8025 58.5 306.7925 58.5 307.8125 C59.36625 308.1528125 59.36625 308.1528125 60.25 308.5 C64.24105501 310.82811542 66.77777422 314.58116943 68.5 318.8125 C69.62347034 328.68858807 67.93404772 334.66142843 62.5 342.8125 C61.84 342.8125 61.18 342.8125 60.5 342.8125 C60.2306665 343.39572021 59.96133301 343.97894043 59.68383789 344.57983398 C58.49330955 346.8251179 57.18505702 348.58739133 55.55859375 350.53515625 C54.97883789 351.23358643 54.39908203 351.9320166 53.80175781 352.65161133 C53.18655273 353.38532959 52.57134766 354.11904785 51.9375 354.875 C50.67055836 356.40102958 49.40363129 357.92707126 48.13671875 359.453125 C46.42362566 361.50794563 44.7093617 363.56178207 42.99462891 365.61523438 C41.7433147 367.11590631 40.49646365 368.62029674 39.25 370.125 C38.56421875 370.94613281 37.8784375 371.76726562 37.171875 372.61328125 C35.4739604 374.68492199 35.4739604 374.68492199 34.578125 376.79296875 C33.04790099 379.65936662 30.82226209 381.55064357 28.5 383.8125 C26.72612967 385.83901247 24.97715205 387.87237287 23.25 389.9375 C22.77111328 390.50662109 22.29222656 391.07574219 21.79882812 391.66210938 C18.09619941 396.07281051 14.4510208 400.52922399 10.81640625 404.99609375 C8.22212524 408.15035447 5.58383258 411.26443827 2.9375 414.375 C-0.85911527 418.84191156 -4.56855694 423.3628352 -8.2109375 427.95703125 C-13.03768555 433.97811115 -17.97896189 439.90664585 -22.89013672 445.85888672 C-24.93318889 448.33818661 -26.967712 450.8243717 -29 453.3125 C-32.82120454 457.9891981 -36.65937666 462.65175148 -40.5 467.3125 C-46.57259161 474.68226757 -52.63510945 482.06001253 -58.66015625 489.46875 C-62.67875198 494.40162942 -66.74517913 499.28542298 -70.875 504.125 C-75.15375736 509.14386675 -79.24887331 514.28125869 -83.28881836 519.4934082 C-87.17772777 524.47796108 -91.26228149 529.27589461 -95.44116211 534.01928711 C-97.74567442 536.65745598 -99.84421193 539.25762135 -101.72265625 542.21875 C-102.30917969 543.0746875 -102.89570312 543.930625 -103.5 544.8125 C-104.16 544.8125 -104.82 544.8125 -105.5 544.8125 C-105.88478516 545.66134766 -105.88478516 545.66134766 -106.27734375 546.52734375 C-107.64047796 549.07505465 -109.23635071 551.13566138 -111.0625 553.375 C-111.77921875 554.25671875 -112.4959375 555.1384375 -113.234375 556.046875 C-113.98203125 556.95953125 -114.7296875 557.8721875 -115.5 558.8125 C-116.20640625 559.68390625 -116.9128125 560.5553125 -117.640625 561.453125 C-121.21011392 565.84436676 -124.81810689 570.1978225 -128.4909668 574.50268555 C-133.25503999 580.08696256 -137.85869062 585.76496773 -142.35913086 591.5637207 C-146.03918648 596.28354853 -149.86869267 600.85984789 -153.796875 605.375 C-155.88225906 607.79429752 -157.75317549 610.19941926 -159.50390625 612.875 C-161.57440162 615.92199123 -163.86152901 618.25235861 -166.5 620.8125 C-167.85794586 622.39588609 -169.1906986 624.00115939 -170.5 625.625 C-171.27214844 626.57890625 -172.04429687 627.5328125 -172.83984375 628.515625 C-173.26120605 629.03833984 -173.68256836 629.56105469 -174.11669922 630.09960938 C-175.63675651 631.98184057 -177.16350805 633.85850355 -178.69140625 635.734375 C-183.37999112 641.49205838 -188.06494777 647.25155884 -192.6875 653.0625 C-195.51138125 656.60712082 -198.39865791 660.09146554 -201.3125 663.5625 C-204.92305435 667.87311603 -208.42617596 672.24694607 -211.875 676.6875 C-216.18974488 682.23766657 -220.69122162 687.59407744 -225.29370117 692.90698242 C-228.58868953 696.71976237 -231.74231657 700.60691469 -234.80078125 704.61328125 C-239.01963043 710.07353892 -243.47130955 715.35459901 -247.86328125 720.67578125 C-251.83492181 725.50182516 -255.71158579 730.33552367 -259.30859375 735.44921875 C-259.70175781 735.89910156 -260.09492188 736.34898437 -260.5 736.8125 C-261.16 736.8125 -261.82 736.8125 -262.5 736.8125 C-262.73976563 737.36808594 -262.97953125 737.92367187 -263.2265625 738.49609375 C-264.78451443 741.33003698 -266.70182785 743.4816227 -268.875 745.875 C-269.64585937 746.73222656 -270.41671875 747.58945312 -271.2109375 748.47265625 C-275.89187474 753.2574368 -279.84478922 755.18223124 -286.5 755.8125 C-293.54578842 755.47138503 -297.61546381 752.64641924 -302.5 747.8125 C-303.7065625 746.94625 -303.7065625 746.94625 -304.9375 746.0625 C-307.54148153 742.3127666 -306.94170307 738.23880533 -306.5 733.8125 C-305.57716007 730.15984114 -304.22860221 726.73720054 -302.8125 723.25 C-302.41168213 722.22318115 -302.01086426 721.1963623 -301.59790039 720.13842773 C-300.24757074 716.69007789 -298.87359165 713.251643 -297.5 709.8125 C-296.52173873 707.32616862 -295.5449708 704.83930321 -294.5703125 702.3515625 C-292.41521488 696.85711083 -290.24928788 691.36702728 -288.078125 685.87890625 C-284.25163542 676.20165323 -280.46738428 666.50803357 -276.6875 656.8125 C-276.35182007 655.95157745 -276.01614014 655.09065491 -275.67028809 654.2036438 C-274.30114112 650.69208984 -272.9320795 647.18050265 -271.56329346 643.66880798 C-269.24272651 637.71568242 -266.91913449 631.76374524 -264.59375 625.8125 C-263.29154144 622.47921558 -261.98947585 619.14587533 -260.6875 615.8125 C-260.36094421 614.97650269 -260.03438843 614.14050537 -259.69793701 613.2791748 C-255.78515325 603.26001532 -251.88612121 593.23568315 -248.0078125 583.203125 C-239.56718237 561.37305085 -231.06499258 539.56951254 -222.4375 517.8125 C-222.01014557 516.7347229 -221.58279114 515.6569458 -221.14248657 514.54650879 C-219.89656312 511.40569134 -218.64947867 508.26533656 -217.40234375 505.125 C-217.00342422 504.11838318 -216.6045047 503.11176636 -216.1934967 502.074646 C-214.05417597 496.68517588 -211.88938358 491.30744472 -209.69189453 485.94140625 C-209.2318251 484.81114014 -208.77175568 483.68087402 -208.29774475 482.51635742 C-207.41762427 480.35628042 -206.53129695 478.19871807 -205.63768005 476.04418945 C-202.85135545 469.18611026 -200.47620515 463.23308113 -202.5 455.8125 C-206.47461618 454.50177682 -210.49929821 454.67220854 -214.63330078 454.68310547 C-215.44997223 454.68135315 -216.26664368 454.67960083 -217.10806274 454.67779541 C-219.80383436 454.67339882 -222.49954023 454.67630663 -225.1953125 454.6796875 C-227.06810519 454.67901396 -228.94089779 454.67804352 -230.81369019 454.67678833 C-234.73599074 454.67531444 -238.6582685 454.67745651 -242.58056641 454.68212891 C-247.61581797 454.68783388 -252.65101632 454.68454038 -257.68626595 454.67855644 C-261.55175175 454.67494923 -265.41722485 454.67609002 -269.28271103 454.67868423 C-271.13992189 454.67935265 -272.99713389 454.67852805 -274.85434341 454.67620468 C-277.44475629 454.67367469 -280.03508193 454.67752332 -282.62548828 454.68310547 C-283.78346924 454.68006912 -283.78346924 454.68006912 -284.96484375 454.67697144 C-288.86041416 454.616307 -288.86041416 454.616307 -292.5 455.8125 C-292.5 455.1525 -292.5 454.4925 -292.5 453.8125 C-295.52419525 454.40053797 -298.51758453 455.03928118 -301.5 455.8125 C-301.5 455.4825 -301.5 455.1525 -301.5 454.8125 C-302.07105469 454.80663376 -302.64210938 454.80076752 -303.23046875 454.79472351 C-309.20100208 454.73054057 -315.17100875 454.646058 -321.14111328 454.55004883 C-323.36597732 454.51689742 -325.59092348 454.48883534 -327.81591797 454.46606445 C-331.0234663 454.43233855 -334.23026866 454.38001288 -337.4375 454.32421875 C-338.42427734 454.31782883 -339.41105469 454.3114389 -340.42773438 454.30485535 C-348.82245496 454.1281523 -355.61308266 452.39135672 -361.96484375 446.6328125 C-364.23046965 443.94634515 -365.44699898 441.03496424 -366.67578125 437.765625 C-367.43344704 435.62801843 -367.43344704 435.62801843 -369.5 433.8125 C-368.84 433.8125 -368.18 433.8125 -367.5 433.8125 C-367.685625 431.95625 -367.685625 431.95625 -367.875 430.0625 C-367.78992391 419.17276094 -360.26443503 410.89381707 -353.42578125 403.1640625 C-350.4712538 399.82194344 -347.72682252 396.3412143 -345 392.8125 C-341.00073991 387.66257311 -336.86602771 382.65891304 -332.625 377.70703125 C-329.31208562 373.82000386 -326.13355562 369.84509494 -323 365.8125 C-318.92895569 360.57425352 -314.7265902 355.47469038 -310.41845703 350.43017578 C-307.01458837 346.43964394 -303.71626538 342.37842315 -300.45703125 338.26953125 C-296.10379956 332.80409665 -291.64367012 327.42441205 -287.2109375 322.0234375 C-283.65342766 317.68352 -280.11238465 313.33401955 -276.625 308.9375 C-273.48729132 304.99973812 -270.26280845 301.14631385 -267 297.3125 C-263.17918425 292.82237737 -259.44627982 288.27899506 -255.78125 283.66015625 C-248.0776924 274.04390028 -240.18193395 264.58293476 -232.19213867 255.20385742 C-229.14136045 251.60860121 -226.23560834 247.9273838 -223.37109375 244.18359375 C-221.00539511 241.18572512 -218.53913135 238.28140096 -216.0625 235.375 C-211.43104948 229.93876324 -206.92798506 224.41638151 -202.5 218.8125 C-197.65532401 212.68127105 -192.70488836 206.65935148 -187.64404297 200.70654297 C-181.84808564 193.88269159 -176.19169453 186.94950265 -170.625 179.9375 C-167.58851274 176.12841539 -164.47100124 172.39547697 -161.3125 168.6875 C-154.91144816 161.16782859 -148.70672747 153.49268857 -142.5 145.8125 C-135.92059249 137.67115812 -129.32074109 129.56099039 -122.52075195 121.60253906 C-119.26482229 117.77036482 -116.14542652 113.8471793 -113.0625 109.875 C-108.78685309 104.36689307 -104.32972238 99.04937536 -99.76757812 93.77709961 C-96.3120696 89.77843817 -92.96594025 85.71226716 -89.6875 81.56640625 C-86.83927609 77.98069579 -83.95179168 74.42765157 -81.0625 70.875 C-80.49958252 70.18269287 -79.93666504 69.49038574 -79.35668945 68.77709961 C-74.74884798 63.11316898 -70.12780153 57.46013187 -65.5 51.8125 C-63.99985719 49.97928352 -62.49985918 48.14594854 -61 46.3125 C-58.79771834 43.62040053 -56.59511364 40.92857386 -54.390625 38.23828125 C-50.49637923 33.48417464 -46.61251303 28.72199635 -42.74389648 23.94702148 C-41.07025562 21.88455742 -39.39075912 19.82696242 -37.7109375 17.76953125 C-35.68748258 15.28806051 -33.692944 12.78859751 -31.7265625 10.26171875 C-23.78496276 0.16010002 -13.00357317 -7.66628567 0 0 Z " fill="#2A8CFE" transform="translate(677.5,135.1875)"/>
<path d="M0 0 C18.15959508 -0.02342179 36.3191862 -0.04102459 54.47879314 -0.05181217 C62.91172988 -0.05695548 71.3446572 -0.0639605 79.77758789 -0.07543945 C87.13279296 -0.08544658 94.4879912 -0.09186771 101.84320289 -0.09408849 C105.73310524 -0.09538541 109.62298808 -0.09840613 113.51288414 -0.10573006 C117.18426213 -0.11258567 120.85561282 -0.11459783 124.52699661 -0.11310768 C126.49616598 -0.11350818 128.46533248 -0.11885314 130.43449402 -0.12442017 C138.3341593 -0.11540274 146.13343718 0.27704732 154 1 C154 1.99 154 2.98 154 4 C154.5775 4.226875 155.155 4.45375 155.75 4.6875 C159.74105501 7.01561542 162.27777422 10.76866943 164 15 C165.12347034 24.87608807 163.43404772 30.84892843 158 39 C157.34 39 156.68 39 156 39 C155.78601563 39.52078125 155.57203125 40.0415625 155.3515625 40.578125 C153.44194057 43.99999089 150.93324112 46.79568602 148.375 49.75 C147.859375 50.35199219 147.34375 50.95398438 146.8125 51.57421875 C145.54530865 53.05260866 144.27314225 54.52673171 143 56 C143 51.75961118 145.44219158 49.83033568 148.125 46.8125 C149.13697744 45.64588331 150.14740216 44.47791787 151.15625 43.30859375 C151.64609375 42.74253418 152.1359375 42.17647461 152.640625 41.59326172 C158.36887726 34.87943732 161.14263156 30.7262891 161.3125 21.6875 C161.34988281 20.39199219 161.38726563 19.09648437 161.42578125 17.76171875 C160.92075011 13.29983813 159.94349262 11.37146408 157 8 C150.4859936 2.9977 144.17358799 3.4356858 136.18945312 3.48583984 C134.79092132 3.48037349 133.39239552 3.47312883 131.99388123 3.46424866 C128.99276018 3.44895504 125.99198077 3.44609129 122.99082947 3.45301437 C118.24151334 3.4638331 113.49255197 3.44638103 108.74328613 3.42520142 C101.22949034 3.39498083 93.71580017 3.38325048 86.20194864 3.37962496 C72.74979121 3.37297205 59.29770731 3.34388652 45.84563971 3.2945286 C41.1283611 3.2780693 36.41123611 3.27260633 31.69393158 3.27611899 C28.75563166 3.27655726 25.81738934 3.26897349 22.87910652 3.25944328 C20.87545586 3.25549887 18.87179328 3.26151672 16.8681488 3.26786804 C10.87109097 3.2410281 5.64538173 3.1067929 0 1 C0 0.67 0 0.34 0 0 Z " fill="#257BF3" transform="translate(582,439)"/>
<path d="M0 0 C0 3.49723623 -0.48813548 3.94697448 -2.67578125 6.51953125 C-3.25094482 7.20499023 -3.8261084 7.89044922 -4.41870117 8.59667969 C-5.04365479 9.32790039 -5.6686084 10.05912109 -6.3125 10.8125 C-7.60812036 12.35433574 -8.90237488 13.89732015 -10.1953125 15.44140625 C-10.84145508 16.2111377 -11.48759766 16.98086914 -12.15332031 17.77392578 C-14.73148641 20.88176799 -17.2156183 24.05743717 -19.6875 27.25 C-23.26166151 31.85417167 -26.95054979 36.33020484 -30.75 40.75 C-35.19586925 45.94114411 -39.28347694 51.26109544 -43 57 C-43.639375 57.928125 -44.27875 58.85625 -44.9375 59.8125 C-47.05142651 66.15427953 -46.95460252 73.18643469 -44.8125 79.5 C-41.05521474 84.68246243 -37.27869378 88.32843206 -31 90 C-26.39074484 90.45031079 -21.79860671 90.4374721 -17.17016602 90.43237305 C-15.77012776 90.44139922 -14.3700974 90.45172854 -12.97007751 90.46325684 C-9.18546767 90.49075279 -5.40100807 90.50010121 -1.61631131 90.50611091 C2.34488765 90.51551394 6.30597523 90.54171885 10.2671051 90.56611633 C17.7608685 90.60973206 25.25461021 90.63830923 32.74846178 90.66143972 C41.28298791 90.68851786 49.81740171 90.73242772 58.35184753 90.77772844 C75.9011738 90.87050412 93.45052434 90.94221719 111 91 C111 91.33 111 91.66 111 92 C92.24988741 92.14032886 73.49988177 92.24604859 54.74935246 92.31087303 C46.04260233 92.34177586 37.336179 92.38388753 28.62963867 92.45263672 C21.03861514 92.51254878 13.44782835 92.55117512 5.85657495 92.56453097 C1.83907818 92.57233495 -2.1777415 92.59059989 -6.19502068 92.63438034 C-9.98153811 92.67530901 -13.76710392 92.68762893 -17.55382156 92.67864609 C-18.93850577 92.68028778 -20.323224 92.69210325 -21.70771599 92.71523285 C-30.49066021 92.85468285 -36.34917156 91.98600967 -43 86 C-46.35054528 82.5635433 -47.58767865 79.53960434 -49 75 C-49.66 74.34 -50.32 73.68 -51 73 C-50.34 73 -49.68 73 -49 73 C-49.12375 71.7625 -49.2475 70.525 -49.375 69.25 C-49.28992391 58.36026094 -41.76443503 50.08131707 -34.92578125 42.3515625 C-31.97124738 39.00943618 -29.22692359 35.528644 -26.5 32 C-22.45595039 26.7951517 -18.2867316 21.72181257 -14.00634766 16.70996094 C-10.16304011 12.20919065 -6.41094961 7.64124045 -2.6796875 3.046875 C-1 1 -1 1 0 0 Z " fill="#1A65E3" transform="translate(359,496)"/>
<path d="M0 0 C4.5844916 3.37654464 7.9831002 7.25053408 9.5 12.8125 C10.43246665 21.63861996 7.20911856 28.79999608 3.9375 36.8125 C3.38374344 38.19825754 2.83117666 39.58449111 2.27978516 40.97119141 C1.19575587 43.68930247 0.10270727 46.40347284 -0.99951172 49.11425781 C-2.27798573 52.26530309 -3.53739659 55.42265163 -4.78515625 58.5859375 C-5.39724609 60.12026749 -6.01040076 61.65417346 -6.625 63.1875 C-6.89513916 63.86941406 -7.16527832 64.55132812 -7.44360352 65.25390625 C-9.26606772 69.69553386 -9.26606772 69.69553386 -11.5 70.8125 C-9.17498914 62.16764054 -5.86963705 53.96156064 -2.5 45.6875 C-1.96050565 44.3556436 -1.42144065 43.0236132 -0.8828125 41.69140625 C-0.62108749 41.04408539 -0.35936249 40.39676453 -0.08970642 39.72982788 C0.66763261 37.85389903 1.42259367 35.97701072 2.17749023 34.10009766 C2.95395598 32.16989871 3.73517433 30.24157787 4.52758789 28.31787109 C6.8957354 22.3915097 7.30674404 17.11574191 6.5 10.8125 C4.53954782 6.82157948 2.37019477 4.04079396 -1.5 1.8125 C-7.79844551 0.28625552 -14.59960877 -0.46367214 -20.625 2.1875 C-27.79284845 8.73205728 -33.78482654 16.25376274 -39.60620117 23.98974609 C-42.26582593 27.46912159 -44.92824635 30.20434895 -48.5 32.8125 C-46.79996853 28.88417869 -44.21072961 25.69526432 -41.5625 22.375 C-41.07740967 21.7660791 -40.59231934 21.1571582 -40.0925293 20.52978516 C-39.07514407 19.25801262 -38.05532886 17.98818056 -37.03320312 16.72021484 C-36.02851926 15.47011935 -35.02958583 14.21537547 -34.03710938 12.95556641 C-25.51522413 2.14582894 -14.64195878 -8.63219958 0 0 Z " fill="#2373E9" transform="translate(677.5,135.1875)"/>
<path d="M0 0 C0.33 0.66 0.66 1.32 1 2 C0.01549044 4.93216363 -1.04242231 7.76887781 -2.19140625 10.63671875 C-2.53372787 11.50835159 -2.8760495 12.37998444 -3.22874451 13.2780304 C-4.33280765 16.08408342 -5.44753113 18.88576485 -6.5625 21.6875 C-7.28780528 23.52641838 -8.01242252 25.3656083 -8.73632812 27.20507812 C-12.37259231 36.43196103 -16.04805894 45.64317328 -19.74609375 54.84545898 C-24.80716978 66.59930413 -24.80716978 66.59930413 -24 79 C-21.67704175 83.4799909 -19.50798804 85.79959744 -15 88 C-9.11209862 88.76439421 -3.2135058 88.91881373 2.3125 86.625 C6.42666176 82.60651642 10.25413097 78.36185639 14 74 C14 78.06354909 12.47015238 79.05170581 9.75 82 C8.96109375 82.86625 8.1721875 83.7325 7.359375 84.625 C2.61758927 89.39818829 -1.30052044 91.36553885 -8 92 C-15.04578842 91.65888503 -19.11546381 88.83391924 -24 84 C-24.804375 83.4225 -25.60875 82.845 -26.4375 82.25 C-29.04148153 78.5002666 -28.44170307 74.42630533 -28 70 C-27.07717999 66.34742 -25.72877644 62.9245534 -24.3125 59.4375 C-23.7232373 57.92881348 -23.7232373 57.92881348 -23.12207031 56.38964844 C-22.24790152 54.15834097 -21.36580895 51.93012641 -20.47705078 49.70458984 C-18.86048282 45.65007708 -17.27036423 41.58576709 -15.68359375 37.51953125 C-1.66645902 1.66645902 -1.66645902 1.66645902 0 0 Z " fill="#2270E6" transform="translate(399,799)"/>
<path d="M0 0 C4.29 0 8.58 0 13 0 C13 0.99 13 1.98 13 3 C13.5775 3.226875 14.155 3.45375 14.75 3.6875 C18.74105501 6.01561542 21.27777422 9.76866943 23 14 C24.12347034 23.87608807 22.43404772 29.84892843 17 38 C16.34 38 15.68 38 15 38 C14.78601563 38.52078125 14.57203125 39.0415625 14.3515625 39.578125 C12.44194057 42.99999089 9.93324112 45.79568602 7.375 48.75 C6.859375 49.35199219 6.34375 49.95398438 5.8125 50.57421875 C4.54530865 52.05260866 3.27314225 53.52673171 2 55 C2 50.75961118 4.44219158 48.83033568 7.125 45.8125 C8.13697744 44.64588331 9.14740216 43.47791787 10.15625 42.30859375 C10.64609375 41.74253418 11.1359375 41.17647461 11.640625 40.59326172 C17.36887726 33.87943732 20.14263156 29.7262891 20.3125 20.6875 C20.34988281 19.39199219 20.38726563 18.09648437 20.42578125 16.76171875 C19.93286267 12.40685094 18.75539922 10.36277217 16 7 C10.91311319 3.40925637 6.09509231 2.0504014 0 1 C0 0.67 0 0.34 0 0 Z " fill="#216EE4" transform="translate(723,440)"/>
<path d="M0 0 C0.495 0.99 0.495 0.99 1 2 C-0.3125 3.60416667 -1.625 5.20833333 -2.9375 6.8125 C-3.76636719 7.82570313 -4.59523438 8.83890625 -5.44921875 9.8828125 C-7.01358373 11.79487951 -8.57873642 13.70629035 -10.14453125 15.6171875 C-13.52075916 19.73881637 -16.8920349 23.86421199 -20.24609375 28.00390625 C-20.81489258 28.70555908 -21.38369141 29.40721191 -21.96972656 30.13012695 C-23.08321811 31.50426668 -24.19589926 32.87906364 -25.30761719 34.25463867 C-28.80177208 38.56614922 -32.37176036 42.8005982 -36 47 C-36 42.99471005 -34.57432408 41.95972168 -32 38.9375 C-31.17242187 37.95394531 -30.34484375 36.97039063 -29.4921875 35.95703125 C-28.66976563 34.98121094 -27.84734375 34.00539063 -27 33 C-25.7026253 31.37955356 -24.4106644 29.754753 -23.125 28.125 C-19.53576906 23.62058667 -15.82464548 19.22987739 -12.09106445 14.84545898 C-7.9569386 9.97892353 -3.95161527 5.01594718 0 0 Z " fill="#1F6DE6" transform="translate(484,786)"/>
<path d="M0 0 C0.66 0.33 1.32 0.66 2 1 C1.62230469 1.41507812 1.24460937 1.83015625 0.85546875 2.2578125 C-3.63405978 7.28356107 -7.79774037 12.51999209 -11.9284668 17.83959961 C-15.0578011 21.85263838 -18.29663314 25.71478839 -21.7578125 29.44921875 C-23.22477464 31.09718808 -23.22477464 31.09718808 -24 34 C-25.95597184 35.39712274 -27.95436401 36.73779907 -30 38 C-28.69346875 34.23141236 -27.1635582 31.77178104 -24.4375 28.875 C-19.73953997 23.75303636 -15.37302981 18.39980539 -11 13 C-9.35564811 10.97796103 -7.70985462 8.9570934 -6.0625 6.9375 C-5.33160156 6.03902344 -4.60070312 5.14054687 -3.84765625 4.21484375 C-2 2 -2 2 0 0 Z " fill="#2172EA" transform="translate(537,279)"/>
<path d="M0 0 C0 3.52524195 -0.54190367 4.01580803 -2.74609375 6.625 C-3.33221436 7.32681396 -3.91833496 8.02862793 -4.5222168 8.75170898 C-5.15426025 9.49364502 -5.78630371 10.23558105 -6.4375 11 C-7.72423308 12.53232142 -9.01069112 14.06487382 -10.296875 15.59765625 C-10.92916016 16.3467627 -11.56144531 17.09586914 -12.21289062 17.86767578 C-15.28026979 21.52757874 -18.25090293 25.26451514 -21.23046875 28.99609375 C-23 31 -23 31 -26 33 C-24.30685165 29.10005156 -21.75186951 25.92673332 -19.125 22.625 C-18.64756348 22.02083252 -18.17012695 21.41666504 -17.67822266 20.79418945 C-5.50246893 5.50246893 -5.50246893 5.50246893 0 0 Z " fill="#1F6FE9" transform="translate(468,363)"/>
<path d="M0 0 C0 3.78297373 -0.98820689 4.5648577 -3.375 7.4375 C-4.10203125 8.32050781 -4.8290625 9.20351563 -5.578125 10.11328125 C-6.37734375 11.06589844 -7.1765625 12.01851562 -8 13 C-9.27905471 14.52819573 -10.55810309 16.05639697 -11.83642578 17.58520508 C-13.11055976 19.10774449 -14.38729686 20.62810426 -15.6640625 22.1484375 C-18.19255527 25.23505911 -20.55798246 28.40269584 -22.84375 31.671875 C-23.2253125 32.11015625 -23.606875 32.5484375 -24 33 C-24.66 33 -25.32 33 -26 33 C-24.34169486 29.05437742 -21.65290945 26.06579115 -18.875 22.875 C-17.87913058 21.71576875 -16.88434811 20.5556029 -15.890625 19.39453125 C-15.40013672 18.8217041 -14.90964844 18.24887695 -14.40429688 17.65869141 C-11.77402282 14.55193168 -9.25520716 11.35739092 -6.7265625 8.16796875 C-4.52796965 5.4072922 -2.27318501 2.6994072 0 0 Z " fill="#206EE7" transform="translate(634,603)"/>
<path d="M0 0 C0 3.41998622 -0.38248849 3.82762199 -2.4921875 6.3359375 C-3.0279541 6.98232178 -3.5637207 7.62870605 -4.11572266 8.29467773 C-4.69628418 8.98118408 -5.2768457 9.66769043 -5.875 10.375 C-7.06935321 11.80983031 -8.26203988 13.24604936 -9.453125 14.68359375 C-10.05060547 15.40401855 -10.64808594 16.12444336 -11.26367188 16.86669922 C-14.63856031 21.01318054 -17.80065335 25.32148253 -20.9765625 29.62109375 C-23 32 -23 32 -26 33 C-24.47260916 29.57326304 -22.45668829 26.94158718 -20.0625 24.0625 C-19.26585937 23.10214844 -18.46921875 22.14179687 -17.6484375 21.15234375 C-14.3828552 17.2570586 -11.10291471 13.37370703 -7.80688477 9.50415039 C-5.14784003 6.37917328 -2.54654202 3.2173095 0 0 Z " fill="#206EE6" transform="translate(597,648)"/>
<path d="M0 0 C0 4.26895301 -2.49278348 6.26494511 -5.1875 9.3125 C-6.16035247 10.43342348 -7.13300973 11.55451642 -8.10546875 12.67578125 C-8.58419434 13.22314941 -9.06291992 13.77051758 -9.55615234 14.33447266 C-11.74338009 16.8575142 -13.87121102 19.42755115 -16 22 C-16 17.66041823 -13.42911605 15.35630249 -10.8125 12.125 C-10.32974609 11.51269531 -9.84699219 10.90039062 -9.34960938 10.26953125 C-6.42904462 6.6080447 -3.37574181 3.24614295 0 0 Z " fill="#2171E9" transform="translate(487,340)"/>
<path d="M0 0 C0 4.24748072 -2.44583481 6.21637259 -5.125 9.25 C-5.62620361 9.82903076 -6.12740723 10.40806152 -6.64379883 11.00463867 C-7.63828277 12.15266489 -8.63569877 13.29815867 -9.63623047 14.44091797 C-11.33621068 16.38436115 -13.01280548 18.34725606 -14.6875 20.3125 C-15.450625 21.199375 -16.21375 22.08625 -17 23 C-17 18.55435497 -14.1361647 16.34881277 -11.3125 13.1875 C-10.24573599 11.97297039 -9.17932638 10.7581294 -8.11328125 9.54296875 C-7.59330566 8.95435059 -7.07333008 8.36573242 -6.53759766 7.75927734 C-4.31073461 5.21136132 -2.15404853 2.60963578 0 0 Z " fill="#1E6AE4" transform="translate(677,551)"/>
<path d="M0 0 C0.66 0.33 1.32 0.66 2 1 C-9.52164009 14.6332574 -9.52164009 14.6332574 -15 21 C-15 17.15435921 -13.86074829 16.24154965 -11.4375 13.3125 C-10.35275391 11.99572266 -10.35275391 11.99572266 -9.24609375 10.65234375 C-6.20659575 7.06309307 -3.13445231 3.50666852 0 0 Z " fill="#2071EA" transform="translate(412,431)"/>
<path d="M0 0 C0.66 0.33 1.32 0.66 2 1 C-9.52164009 14.6332574 -9.52164009 14.6332574 -15 21 C-15 16.95063758 -13.46673482 15.81218173 -10.875 12.75 C-10.05902344 11.77933594 -9.24304688 10.80867188 -8.40234375 9.80859375 C-7.60957031 8.88175781 -6.81679688 7.95492188 -6 7 C-5.36191406 6.24847656 -4.72382813 5.49695313 -4.06640625 4.72265625 C-2.71847007 3.14198289 -1.36053212 1.56984475 0 0 Z " fill="#1F6FE7" transform="translate(394,453)"/>
<path d="M0 0 C0 4.27798714 -2.49796216 6.30913401 -5.1875 9.375 C-5.91163086 10.22191406 -5.91163086 10.22191406 -6.65039062 11.0859375 C-9.63095748 14.54259489 -12.73433821 17.81194992 -16 21 C-14.45801079 15.73068589 -11.01776986 12.25034458 -7.4375 8.25 C-6.53354492 7.22326172 -6.53354492 7.22326172 -5.61132812 6.17578125 C-1.38504464 1.38504464 -1.38504464 1.38504464 0 0 Z " fill="#2070E9" transform="translate(505,318)"/>
<path d="M0 0 C0.66 0.33 1.32 0.66 2 1 C1.26394531 1.86882812 0.52789063 2.73765625 -0.23046875 3.6328125 C-1.21615806 4.79686464 -2.20183446 5.96092773 -3.1875 7.125 C-3.67025391 7.69476563 -4.15300781 8.26453125 -4.65039062 8.8515625 C-7.78434695 12.55341695 -10.899374 16.27017932 -14 20 C-14 16.13403701 -12.81450086 15.19201976 -10.375 12.25 C-9.65054688 11.37085938 -8.92609375 10.49171875 -8.1796875 9.5859375 C-5.47183439 6.37339492 -2.75699695 3.17054649 0 0 Z " fill="#1F6FEA" transform="translate(627,169)"/>
<path d="M0 0 C0 4.37209415 -2.62174655 6.7364181 -5.25 10 C-5.74113281 10.6290625 -6.23226563 11.258125 -6.73828125 11.90625 C-9.24595785 15.06257894 -11.57792504 17.78379908 -15 20 C-13.66262108 16.0975969 -11.99255318 13.57136201 -9.1875 10.5625 C-6.02093455 7.11330849 -2.96968351 3.61930178 0 0 Z " fill="#1D6EE8" transform="translate(376,475)"/>
<path d="M0 0 C0.66 0.33 1.32 0.66 2 1 C0.04563141 3.31595666 -1.91323411 5.62782368 -3.875 7.9375 C-4.43058594 8.59685547 -4.98617188 9.25621094 -5.55859375 9.93554688 C-6.09355469 10.56396484 -6.62851562 11.19238281 -7.1796875 11.83984375 C-7.67194824 12.42113037 -8.16420898 13.00241699 -8.67138672 13.60131836 C-10 15 -10 15 -12 16 C-10.45333439 12.53611348 -8.38609908 9.81376173 -6 6.875 C-5.29875 6.00617188 -4.5975 5.13734375 -3.875 4.2421875 C-2 2 -2 2 0 0 Z " fill="#2070E9" transform="translate(426,414)"/>
<path d="M0 0 C0 4.12036206 -1.6993277 5.43252807 -4.3125 8.5625 C-5.11300781 9.53316406 -5.91351562 10.50382812 -6.73828125 11.50390625 C-9 14 -9 14 -12 16 C-10.57139081 11.50891248 -8.06922708 8.53830684 -4.875 5.1875 C-4.40707031 4.68541016 -3.93914063 4.18332031 -3.45703125 3.66601562 C-2.31098175 2.43810545 -1.15634689 1.21821785 0 0 Z " fill="#2071E9" transform="translate(551,262)"/>
<path d="M0 0 C0 3.91400006 -1.30306075 4.99937377 -3.75 8 C-4.44609375 8.86625 -5.1421875 9.7325 -5.859375 10.625 C-7.78368063 12.75999603 -9.6372883 14.38228749 -12 16 C-10.45333439 12.53611348 -8.38609908 9.81376173 -6 6.875 C-5.29875 6.00617188 -4.5975 5.13734375 -3.875 4.2421875 C-2 2 -2 2 0 0 Z " fill="#1F70EB" transform="translate(592,212)"/>
<path d="M0 0 C0.66 0 1.32 0 2 0 C0.4554297 3.44127061 -1.582684 6.18696142 -3.9375 9.125 C-4.62714844 9.99382812 -5.31679688 10.86265625 -6.02734375 11.7578125 C-8 14 -8 14 -11 16 C-9.63731316 11.96901538 -7.83453684 9.40933249 -4.9375 6.3125 C-2.13706887 3.38568199 -2.13706887 3.38568199 0 0 Z " fill="#2172EA" transform="translate(609,190)"/>
<path d="M0 0 C0.33 1.32 0.66 2.64 1 4 C0.01 4.495 0.01 4.495 -1 5 C-1.28875 5.66 -1.5775 6.32 -1.875 7 C-3 9 -3 9 -5.125 9.75 C-6.053125 9.87375 -6.053125 9.87375 -7 10 C-5.6062718 5.56541027 -3.39417765 3.12621626 0 0 Z " fill="#267CF0" transform="translate(573,235)"/>
<path d="M0 0 C0 3.93482147 -1.34950326 5.04921209 -3.8125 8.0625 C-4.52019531 8.94035156 -5.22789062 9.81820312 -5.95703125 10.72265625 C-8 13 -8 13 -11 15 C-9.44476633 11.50683117 -7.34563239 8.77131239 -4.9375 5.8125 C-4.22464844 4.93207031 -3.51179687 4.05164063 -2.77734375 3.14453125 C-1.88495567 2.06778168 -0.98887464 0.98887464 0 0 Z " fill="#1F6EE5" transform="translate(640,153)"/>
<path d="M0 0 C0.66 0.33 1.32 0.66 2 1 C-0.64 3.97 -3.28 6.94 -6 10 C-6 6.41087588 -5.33563446 5.89142971 -3 3.3125 C-2.443125 2.68988281 -1.88625 2.06726563 -1.3125 1.42578125 C-0.879375 0.95527344 -0.44625 0.48476563 0 0 Z " fill="#1F70E8" transform="translate(435,403)"/>
<path d="M0 0 C0.66 0.33 1.32 0.66 2 1 C-0.64 3.97 -3.28 6.94 -6 10 C-6 6.41087588 -5.33563446 5.89142971 -3 3.3125 C-2.443125 2.68988281 -1.88625 2.06726563 -1.3125 1.42578125 C-0.879375 0.95527344 -0.44625 0.48476562 0 0 Z " fill="#1D6FE9" transform="translate(560,251)"/>
<path d="M0 0 C1 3 1 3 -0.4375 6.1875 C-1.2109375 7.5796875 -1.2109375 7.5796875 -2 9 C-3.10102197 5.69693408 -2.95067299 4.28414305 -2 1 C-1.34 0.67 -0.68 0.34 0 0 Z " fill="#2479EF" transform="translate(606,355)"/>
<path d="M0 0 C0.33 0.66 0.66 1.32 1 2 C-0.98 4.31 -2.96 6.62 -5 9 C-5 4.61031544 -2.87194899 3.23094261 0 0 Z " fill="#216EE6" transform="translate(694,530)"/>
<path d="M0 0 C1.32 0.33 2.64 0.66 4 1 C3.01 1.495 3.01 1.495 2 2 C1.34 1.34 0.68 0.68 0 0 Z " fill="#3B92F8" transform="translate(371,590)"/>
<path d="M0 0 C1.32 0.33 2.64 0.66 4 1 C3.01 1.33 2.02 1.66 1 2 C0.67 1.34 0.34 0.68 0 0 Z " fill="#3C97FE" transform="translate(580,434)"/>
<path d="M0 0 C4 1 4 1 4 1 Z " fill="#3C93FB" transform="translate(398,590)"/>
<path d="" fill="#3B95FB" transform="translate(0,0)"/>
<path d="M0 0 C3 1 3 1 3 1 Z " fill="#3B94FC" transform="translate(467,590)"/>
<path d="M0 0 C0.66 0 1.32 0 2 0 C1.67 0.66 1.34 1.32 1 2 C0.67 1.34 0.34 0.68 0 0 Z " fill="#3D93F7" transform="translate(473,352)"/>
<path d="M0 0 C0.99 0.495 0.99 0.495 2 1 C1.01 1.495 1.01 1.495 0 2 C0 1.34 0 0.68 0 0 Z " fill="#3C93F7" transform="translate(537,275)"/>
<path d="M0 0 C2 1 2 1 2 1 Z " fill="#3888E9" transform="translate(376,887)"/>
<path d="" fill="#3C86E3" transform="translate(0,0)"/>
<path d="M0 0 C2 1 2 1 2 1 Z " fill="#3C8EF4" transform="translate(581,671)"/>
<path d="M0 0 C2 1 2 1 2 1 Z " fill="#3C94FA" transform="translate(471,591)"/>
<path d="M0 0 C2 1 2 1 2 1 Z " fill="#3B93FD" transform="translate(443,590)"/>
<path d="M0 0 C2 1 2 1 2 1 Z " fill="#3C94FB" transform="translate(421,590)"/>
<path d="M0 0 C2 1 2 1 2 1 Z " fill="#3C93FD" transform="translate(411,590)"/>
<path d="M0 0 C2 1 2 1 2 1 Z " fill="#3B93FB" transform="translate(403,590)"/>
<path d="M0 0 C2 1 2 1 2 1 Z " fill="#3B93F9" transform="translate(395,590)"/>
<path d="M0 0 C2 1 2 1 2 1 Z " fill="#3C92FA" transform="translate(363,590)"/>
<path d="M0 0 C2 1 2 1 2 1 Z " fill="#3D92FA" transform="translate(360,590)"/>
<path d="M0 0 C2 1 2 1 2 1 Z " fill="#3B90F7" transform="translate(344,590)"/>
<path d="M0 0 C2 1 2 1 2 1 Z " fill="#3C92F6" transform="translate(369,480)"/>
<path d="" fill="#3C90F6" transform="translate(0,0)"/>
<path d="" fill="#398EF7" transform="translate(0,0)"/>
<path d="" fill="#3D90F7" transform="translate(0,0)"/>
<path d="" fill="#3B8BEF" transform="translate(0,0)"/>
<path d="" fill="#2E2F2E" transform="translate(0,0)"/>
<path d="" fill="#3F4F60" transform="translate(0,0)"/>
<path d="" fill="#3F85E3" transform="translate(0,0)"/>
<path d="" fill="#3D87E4" transform="translate(0,0)"/>
<path d="" fill="#3D85E4" transform="translate(0,0)"/>
<path d="" fill="#3D84E0" transform="translate(0,0)"/>
<path d="" fill="#4089E8" transform="translate(0,0)"/>
<path d="" fill="#3C8EF1" transform="translate(0,0)"/>
<path d="" fill="#3D8AE9" transform="translate(0,0)"/>
<path d="" fill="#3D8CEE" transform="translate(0,0)"/>
<path d="" fill="#3D8CF0" transform="translate(0,0)"/>
<path d="" fill="#3F8FED" transform="translate(0,0)"/>
<path d="" fill="#3F92F4" transform="translate(0,0)"/>
<path d="" fill="#3D90F5" transform="translate(0,0)"/>
<path d="" fill="#3C90F6" transform="translate(0,0)"/>
<path d="" fill="#398FF2" transform="translate(0,0)"/>
<path d="" fill="#398CF4" transform="translate(0,0)"/>
<path d="" fill="#3E8FF2" transform="translate(0,0)"/>
<path d="" fill="#3F90F2" transform="translate(0,0)"/>
<path d="" fill="#3C8FF7" transform="translate(0,0)"/>
<path d="" fill="#398CF4" transform="translate(0,0)"/>
<path d="" fill="#3C92F9" transform="translate(0,0)"/>
<path d="" fill="#3C8CF1" transform="translate(0,0)"/>
<path d="" fill="#3F8FF3" transform="translate(0,0)"/>
<path d="" fill="#3A8EF1" transform="translate(0,0)"/>
<path d="" fill="#3C8EF6" transform="translate(0,0)"/>
<path d="" fill="#3B8BF4" transform="translate(0,0)"/>
<path d="" fill="#3D8CF4" transform="translate(0,0)"/>
<path d="" fill="#3D91F9" transform="translate(0,0)"/>
<path d="" fill="#398CEF" transform="translate(0,0)"/>
<path d="" fill="#3D93FB" transform="translate(0,0)"/>
<path d="" fill="#3F8DF0" transform="translate(0,0)"/>
<path d="" fill="#3C91F4" transform="translate(0,0)"/>
<path d="" fill="#3C93F9" transform="translate(0,0)"/>
<path d="" fill="#3B8FF7" transform="translate(0,0)"/>
<path d="" fill="#3C91F8" transform="translate(0,0)"/>
<path d="" fill="#3D92FB" transform="translate(0,0)"/>
<path d="" fill="#3C8EF4" transform="translate(0,0)"/>
<path d="" fill="#3F8FF2" transform="translate(0,0)"/>
<path d="" fill="#3E8FF5" transform="translate(0,0)"/>
<path d="" fill="#3F90F4" transform="translate(0,0)"/>
<path d="" fill="#3C91F9" transform="translate(0,0)"/>
<path d="" fill="#3993FC" transform="translate(0,0)"/>
<path d="" fill="#3A8DF3" transform="translate(0,0)"/>
<path d="" fill="#3D8FF0" transform="translate(0,0)"/>
<path d="" fill="#3A93FD" transform="translate(0,0)"/>
<path d="" fill="#3A94FF" transform="translate(0,0)"/>
<path d="" fill="#3A94FD" transform="translate(0,0)"/>
<path d="" fill="#3B95FE" transform="translate(0,0)"/>
<path d="" fill="#3A94FC" transform="translate(0,0)"/>
<path d="" fill="#3B94FD" transform="translate(0,0)"/>
<path d="" fill="#3B95FD" transform="translate(0,0)"/>
<path d="" fill="#3B93FD" transform="translate(0,0)"/>
<path d="" fill="#3B93FE" transform="translate(0,0)"/>
<path d="" fill="#3C93FD" transform="translate(0,0)"/>
<path d="" fill="#3C96FE" transform="translate(0,0)"/>
<path d="" fill="#3A95FB" transform="translate(0,0)"/>
<path d="" fill="#3B93FD" transform="translate(0,0)"/>
<path d="" fill="#3C95FB" transform="translate(0,0)"/>
<path d="" fill="#3E94FC" transform="translate(0,0)"/>
<path d="" fill="#3B95FB" transform="translate(0,0)"/>
<path d="" fill="#3B93FB" transform="translate(0,0)"/>
<path d="" fill="#3C93FA" transform="translate(0,0)"/>
<path d="" fill="#3C91F9" transform="translate(0,0)"/>
<path d="" fill="#3D90F9" transform="translate(0,0)"/>
<path d="" fill="#3B90F7" transform="translate(0,0)"/>
<path d="" fill="#3B90F9" transform="translate(0,0)"/>
<path d="" fill="#3C8FF5" transform="translate(0,0)"/>
<path d="" fill="#3D90F5" transform="translate(0,0)"/>
<path d="" fill="#3892F7" transform="translate(0,0)"/>
<path d="" fill="#3F8DF0" transform="translate(0,0)"/>
<path d="" fill="#3B8DF4" transform="translate(0,0)"/>
<path d="" fill="#438EEC" transform="translate(0,0)"/>
<path d="" fill="#3F8CEE" transform="translate(0,0)"/>
<path d="" fill="#3E8EEF" transform="translate(0,0)"/>
<path d="" fill="#4090EE" transform="translate(0,0)"/>
<path d="" fill="#418EEE" transform="translate(0,0)"/>
<path d="" fill="#408FF4" transform="translate(0,0)"/>
<path d="" fill="#3E94F2" transform="translate(0,0)"/>
<path d="" fill="#4094F3" transform="translate(0,0)"/>
<path d="" fill="#4193F3" transform="translate(0,0)"/>
<path d="" fill="#3F92F4" transform="translate(0,0)"/>
<path d="" fill="#3C90F8" transform="translate(0,0)"/>
<path d="" fill="#3C92F7" transform="translate(0,0)"/>
<path d="" fill="#3F93F6" transform="translate(0,0)"/>
<path d="" fill="#3F94F7" transform="translate(0,0)"/>
<path d="" fill="#3C90F3" transform="translate(0,0)"/>
<path d="" fill="#3E8FF3" transform="translate(0,0)"/>
<path d="" fill="#418FF1" transform="translate(0,0)"/>
<path d="" fill="#4290F3" transform="translate(0,0)"/>
<path d="" fill="#3F92F3" transform="translate(0,0)"/>
<path d="" fill="#3F93F9" transform="translate(0,0)"/>
<path d="" fill="#3C95F7" transform="translate(0,0)"/>
<path d="" fill="#448AE4" transform="translate(0,0)"/>
<path d="" fill="#3F93F6" transform="translate(0,0)"/>
<path d="" fill="#3B95FA" transform="translate(0,0)"/>
<path d="" fill="#3D94F8" transform="translate(0,0)"/>
<path d="" fill="#3E98FE" transform="translate(0,0)"/>
<path d="" fill="#4091F3" transform="translate(0,0)"/>
<path d="" fill="#3C95FD" transform="translate(0,0)"/>
<path d="" fill="#3C90F5" transform="translate(0,0)"/>
<path d="" fill="#3C91F7" transform="translate(0,0)"/>
<path d="" fill="#3E92F5" transform="translate(0,0)"/>
<path d="" fill="#3B93FB" transform="translate(0,0)"/>
<path d="" fill="#3C93FA" transform="translate(0,0)"/>
<path d="" fill="#3C91F8" transform="translate(0,0)"/>
<path d="" fill="#4093F9" transform="translate(0,0)"/>
<path d="" fill="#4294F9" transform="translate(0,0)"/>
<path d="" fill="#3A93FD" transform="translate(0,0)"/>
<path d="" fill="#4091F4" transform="translate(0,0)"/>
<path d="" fill="#3D92F6" transform="translate(0,0)"/>
<path d="" fill="#3E93F6" transform="translate(0,0)"/>
<path d="" fill="#3B90F9" transform="translate(0,0)"/>
<path d="" fill="#3C8FFA" transform="translate(0,0)"/>
<path d="" fill="#3D93F9" transform="translate(0,0)"/>
<path d="" fill="#3D93F8" transform="translate(0,0)"/>
<path d="" fill="#408EF3" transform="translate(0,0)"/>
<path d="" fill="#388DF7" transform="translate(0,0)"/>
<path d="" fill="#3E91F6" transform="translate(0,0)"/>
<path d="" fill="#3C8FFA" transform="translate(0,0)"/>
<path d="" fill="#3A8DF8" transform="translate(0,0)"/>
<path d="" fill="#3F8FF9" transform="translate(0,0)"/>
<path d="" fill="#3D93F9" transform="translate(0,0)"/>
<path d="" fill="#3C8EF8" transform="translate(0,0)"/>
<path d="" fill="#4190F4" transform="translate(0,0)"/>
<path d="" fill="#3F91F7" transform="translate(0,0)"/>
<path d="" fill="#3D90F4" transform="translate(0,0)"/>
<path d="" fill="#3E8EF4" transform="translate(0,0)"/>
<path d="" fill="#3E91F5" transform="translate(0,0)"/>
<path d="" fill="#4092F2" transform="translate(0,0)"/>
<path d="" fill="#3E90F5" transform="translate(0,0)"/>
<path d="" fill="#3A8CF6" transform="translate(0,0)"/>
<path d="" fill="#3D91FA" transform="translate(0,0)"/>
<path d="" fill="#3D8EF6" transform="translate(0,0)"/>
<path d="" fill="#3E91F8" transform="translate(0,0)"/>
<path d="" fill="#3D8EF5" transform="translate(0,0)"/>
<path d="" fill="#3E90F4" transform="translate(0,0)"/>
<path d="" fill="#378EF7" transform="translate(0,0)"/>
<path d="" fill="#3D90F6" transform="translate(0,0)"/>
<path d="" fill="#3F90F6" transform="translate(0,0)"/>
<path d="" fill="#3F94F7" transform="translate(0,0)"/>
<path d="" fill="#3A90F6" transform="translate(0,0)"/>
<path d="" fill="#3E91F5" transform="translate(0,0)"/>
<path d="" fill="#3E8EF3" transform="translate(0,0)"/>
<path d="" fill="#3C8FF5" transform="translate(0,0)"/>
<path d="" fill="#3D91F5" transform="translate(0,0)"/>
<path d="" fill="#3D92F8" transform="translate(0,0)"/>
<path d="" fill="#3C8FF6" transform="translate(0,0)"/>
<path d="" fill="#3C91F7" transform="translate(0,0)"/>
<path d="" fill="#4090F6" transform="translate(0,0)"/>
<path d="" fill="#3D8FF9" transform="translate(0,0)"/>
<path d="" fill="#3A8EF5" transform="translate(0,0)"/>
<path d="" fill="#3C8CF3" transform="translate(0,0)"/>
<path d="" fill="#3C8BF2" transform="translate(0,0)"/>
<path d="" fill="#3F8DF2" transform="translate(0,0)"/>
<path d="" fill="#3E8DF2" transform="translate(0,0)"/>
<path d="" fill="#333335" transform="translate(0,0)"/>
<path d="" fill="#4088E4" transform="translate(0,0)"/>
<path d="" fill="#3C88EB" transform="translate(0,0)"/>
<path d="" fill="#3C86E7" transform="translate(0,0)"/>
<path d="" fill="#3D89E8" transform="translate(0,0)"/>
</svg>
